<svg width="38" height="38" viewBox="0 0 34 34" fill="none" xmlns="http://www.w3.org/2000/svg">
<path d="M16.9993 30.8125C18.5577 30.8125 19.8327 29.5375 19.8327 27.9792H14.166C14.166 29.5375 15.441 30.8125 16.9993 30.8125ZM25.4993 22.3125V15.2292C25.4993 10.88 23.1902 7.23917 19.1243 6.27583V5.3125C19.1243 4.13667 18.1752 3.1875 16.9993 3.1875C15.8235 3.1875 14.8743 4.13667 14.8743 5.3125V6.27583C10.8227 7.23917 8.49935 10.8658 8.49935 15.2292V22.3125L5.66602 25.1458V26.5625H28.3327V25.1458L25.4993 22.3125ZM22.666 23.7292H11.3327V15.2292C11.3327 11.7158 13.4718 8.85417 16.9993 8.85417C20.5268 8.85417 22.666 11.7158 22.666 15.2292V23.7292Z" fill="#C29A51"/>
</svg>
